<svg width="32" height="32" viewBox="0 0 32 32" fill="none" xmlns="http://www.w3.org/2000/svg">
<g clip-path="url(#clip0_1_2)">
<path fill-rule="evenodd" clip-rule="evenodd" d="M16 0C7.163 0 0 7.163 0 16C0 24.836 7.163 32 16 32C24.836 32 32 24.837 32 16C32 7.163 24.836 0 16 0ZM16 29.5C8.268 29.5 2.5 23.732 2.5 16C2.5 8.268 8.268 2.5 16 2.5C23.732 2.5 29.5 8.268 29.5 16C29.5 23.732 23.732 29.5 16 29.5Z" fill="#121313"/>
<path fill-rule="evenodd" clip-rule="evenodd" d="M22.729 21.271L17.461 16.002L22.699 10.807C23.094 10.416 23.094 9.783 22.699 9.393C22.305 9.003 21.665 9.003 21.271 9.393L16.04 14.581L10.731 9.271C10.337 8.875 9.69699 8.875 9.30299 9.271C8.90899 9.666 8.90899 10.308 9.30299 10.703L14.604 16.005L9.27299 21.292C8.87899 21.683 8.87899 22.316 9.27299 22.706C9.66699 23.097 10.307 23.097 10.702 22.706L16.026 17.426L21.302 22.702C21.696 23.098 22.336 23.098 22.73 22.702C23.123 22.308 23.123 21.667 22.729 21.271Z" fill="#121313" stroke="black"/>
</g>
<defs>
<clipPath id="clip0_1_2">
<rect width="32" height="32" fill="white"/>
</clipPath>
</defs>
</svg>
